<?xml version="1.0" encoding="UTF-8"?>
<svg width="80px" height="77px" viewBox="0 0 80 77" version="1.1" xmlns="http://www.w3.org/2000/svg" xmlns:xlink="http://www.w3.org/1999/xlink">
    <!-- Generator: Sketch 51.3 (57544) - http://www.bohemiancoding.com/sketch -->
    <title>noun_explosion_2039772</title>
    <desc>Created with Sketch.</desc>
    <defs></defs>
    <g id="Page-1" stroke="none" stroke-width="1" fill="none" fill-rule="evenodd">
        <g id="Tradeshow_Details" transform="translate(-232.000000, -566.000000)" fill="#A6FABE" fill-rule="nonzero">
            <g id="noun_explosion_2039772" transform="translate(232.000000, 566.000000)">
                <g id="Group">
                    <path d="M78,72.5 L74.949,72.5 C74.1325124,71.2532529 73.4516439,69.9227937 72.918,68.5313 C71.6445,65.5449 70.328,62.4551 67.4102,61.8906 C65.8444696,61.6730481 64.2565961,62.0884605 62.998,63.0449 C61.5679773,60.2606757 59.0706384,58.1748576 56.0762,57.2637 C53.4766028,56.6312666 50.7577581,57.6810986 49.2578,59.8965 C48,57.5742 48,49.0078 48,42.5 C48,41.3954305 47.1045695,40.5 46,40.5 C44.8954305,40.5 44,41.3954305 44,42.5 C44,56.2188 44,64.5 50,64.5 C50.7575632,64.4999196 51.4501124,64.0719876 51.7891,63.3945 C53.1465,60.6758 54.6113,61.0293 55.1563,61.1563 C57.6074,61.7344 60,64.957 60,66.5 C60.0000918,67.3088539 60.4873751,68.0380221 61.2346639,68.3475447 C61.9819526,68.6570673 62.842108,68.4860002 63.4141,67.9141 C65.6289,65.6992 66.5547,65.7969 66.6484,65.8184 C67.4824,65.9784 68.5391,68.459 69.2402,70.0996 C69.5837,70.9063 69.9429,71.7136 70.3262,72.4996 L9.6738,72.4996 C10.0571,71.7132 10.4163,70.9059 10.7598,70.0996 C11.4609,68.459 12.5176,65.9785 13.3516,65.8184 C13.4453,65.793 14.3711,65.6992 16.5859,67.9141 C17.157892,68.4860002 18.0180474,68.6570673 18.7653361,68.3475447 C19.5126249,68.0380221 19.9999082,67.3088539 20,66.5 C20,64.957 22.3926,61.7344 24.8438,61.1563 C25.3828,61.0254 26.8496,60.6738 28.2109,63.3945 C28.5498876,64.0719876 29.2424368,64.4999196 30,64.5 C36,64.5 36,56.2188 36,42.5 C36,41.3954305 35.1045695,40.5 34,40.5 C32.8954305,40.5 32,41.3954305 32,42.5 C32,49.0059 32,57.5742 30.7422,59.8965 C29.2442349,57.6785951 26.5236039,56.6280734 23.9238,57.2637 C20.9293616,58.1748576 18.4320227,60.2606757 17.002,63.0449 C15.7441187,62.0871505 14.1557536,61.6715907 12.59,61.8906 C9.6721,62.4551 8.3557,65.5449 7.0822,68.5313 C6.54858784,69.9227894 5.86775299,71.2532485 5.0513,72.5 L2,72.5 C0.8954305,72.5 0,73.3954305 0,74.5 C0,75.6045695 0.8954305,76.5 2,76.5 L78,76.5 C79.1045695,76.5 80,75.6045695 80,74.5 C80,73.3954305 79.1045695,72.5 78,72.5 Z" id="Shape"></path>
                    <path d="M46.0176,29.9473 C41.3616235,33.1799793 35.2194582,33.2993431 30.4414,30.25 C29.513076,29.6607958 28.2832499,29.9310872 27.687533,30.8552454 C27.091816,31.7794035 27.3534534,33.0110997 28.2734,33.6133 C34.4046508,37.600906 42.3479935,37.4453282 48.3184,33.2207 C48.9087163,32.8118795 49.2346594,32.1180502 49.1724536,31.4026916 C49.1102478,30.687333 48.6694351,30.0601789 48.0174129,29.7593891 C47.3653907,29.4585994 46.602177,29.5303142 46.0176,29.9473 Z" id="Shape"></path>
                    <path d="M20,40.5 C21.5797404,40.5019413 23.1440433,40.1891895 24.6016,39.58 C25.2610051,39.3043696 25.7232735,38.6978882 25.8142731,37.9890114 C25.9052727,37.2801346 25.6111786,36.5765578 25.0427731,36.1433114 C24.4743676,35.710065 23.7180051,35.6129696 23.0586,35.8886 C22.0900287,36.2942907 21.0501002,36.5021676 20,36.5 C16.948301,36.4980283 14.1635484,34.760061 12.8209695,32.0195588 C11.4783906,29.2790565 11.8118818,26.0134538 13.6807023,23.6009073 C15.5495229,21.1883609 18.6280977,20.0491706 21.6172,20.6641 C22.2240719,20.7561159 22.8402997,20.5719812 23.2972,20.1621 C23.7647113,19.7385327 24.0218211,19.1304759 24,18.5 C23.9995039,11.3076175 29.4494482,5.28520255 36.6061509,4.56967944 C43.7628536,3.85415633 50.2972392,8.6783847 51.7207,15.7285 C51.8374227,16.3063091 52.2024662,16.8034938 52.7188,17.0879 C53.2353923,17.3738493 53.852559,17.4146516 54.4023,17.1992 C58.1445033,15.7485979 62.3915147,16.6788726 65.1846689,19.5609937 C67.977823,22.4431147 68.7745191,26.7171985 67.2073314,30.4120942 C65.6401437,34.10699 62.0135156,36.5049236 58,36.5 C56.7248813,36.5021009 55.4614103,36.2573664 54.2793,35.7793 C53.6165748,35.5087543 52.8597815,35.6131221 52.2950223,36.0529478 C51.730263,36.4927735 51.4437065,37.2009501 51.5436841,37.9097548 C51.6436617,38.6185596 52.1149192,39.2198457 52.7793,39.4863 C54.4378121,40.157934 56.2106565,40.5021661 58,40.5 C65.7319865,40.5 72,34.2319865 72,26.5 C72,18.7680135 65.7319865,12.5 58,12.5 C57.0177837,12.5017466 56.0386785,12.6104541 55.08,12.8242 C52.424047,4.80278938 44.5394003,-0.285549953 36.1361261,0.598812754 C27.7328519,1.48317546 21.0802094,8.1014228 20.1523,16.5 C13.5090608,16.5219848 8.1057618,21.8575664 8,28.5 C8.00721985,35.1244241 13.3755759,40.4927802 20,40.5 Z" id="Shape"></path>
                </g>
            </g>
        </g>
    </g>
</svg>