<?xml version="1.0" encoding="UTF-8"?>
<svg width="45px" height="37px" viewBox="0 0 45 37" version="1.1" xmlns="http://www.w3.org/2000/svg" xmlns:xlink="http://www.w3.org/1999/xlink">
    <!-- Generator: Sketch 51.3 (57544) - http://www.bohemiancoding.com/sketch -->
    <title>noun_Bomb_1432850</title>
    <desc>Created with Sketch.</desc>
    <defs></defs>
    <g id="Page-1" stroke="none" stroke-width="1" fill="none" fill-rule="evenodd">
        <g id="Tradeshow_Details" transform="translate(-97.000000, -596.000000)" fill="#A6FABE" fill-rule="nonzero">
            <g id="noun_Bomb_1432850" transform="translate(119.000000, 611.666667) rotate(37.000000) translate(-119.000000, -611.666667) translate(103.000000, 587.666667)">
                <g id="Group">
                    <path d="M19.5273209,20.7476501 L19.5273209,18.6976013 C19.5273209,17.5576477 18.607277,16.6376037 17.4673233,16.6376037 L15.2104874,16.6376037 L15.2104874,14.0428771 C15.2104874,13.0272521 16.0366593,12.2005919 17.0522843,12.2005919 C19.5332413,12.2005919 21.9038468,11.2821349 23.727089,9.6141661 C24.1348,9.2416075 24.1631242,8.608795 23.7900773,8.2015684 C23.4165421,7.792877 22.7847062,7.7640684 22.3774796,8.1385801 C20.923378,9.4681699 19.0322648,10.2005918 17.0522843,10.2005918 C14.9341202,10.2005918 13.2104874,11.9242246 13.2104874,14.042877 L13.2104874,16.6376036 L10.9573136,16.6376036 C9.817299,16.6376036 8.8873063,17.5576475 8.8873063,18.6976012 L8.8873063,20.7575988 C3.357277,23.0075988 -0.2426986,28.6076354 0.0773087,34.6176452 C0.4673233,41.8276061 6.4172745,47.707611 13.6373063,47.9876403 C13.8273087,47.9976501 14.0173112,47.9976501 14.2073136,47.9976501 C17.9872819,47.9976501 21.5472794,46.5276184 24.2173234,43.8576355 C26.8873063,41.1876526 28.357277,37.627655 28.357277,33.8476257 C28.3572769,28.087616 24.8373184,22.9076233 19.5273209,20.7476501 Z M22.6240616,34.9247131 C22.0718155,34.9247131 21.6240616,34.4769592 21.6240616,33.9247131 C21.6240616,30.8636779 19.6973038,28.0765686 16.8301163,26.9891662 C16.3135147,26.7933654 16.0537491,26.216217 16.2495499,25.6996154 C16.4453507,25.1825256 17.0254288,24.9242248 17.5391007,25.119049 C21.1787491,26.4989318 23.6240616,30.037506 23.6240616,33.9247131 C23.6240616,34.4769592 23.1763077,34.9247131 22.6240616,34.9247131 Z" id="Shape"></path>
                    <path d="M25.8100967,7.2933655 C26.060585,7.2933655 26.3115615,7.1996155 26.5058975,7.0116272 L29.0586319,4.5389709 C29.4551163,4.1546936 29.4653702,3.5218811 29.0810928,3.1249084 C28.6973037,2.7279357 28.064003,2.7181701 27.6670303,3.1024475 L25.114296,5.5751038 C24.7178116,5.9593811 24.7075577,6.5921936 25.0918351,6.9891663 C25.2881241,7.191803 25.5488663,7.2933655 25.8100967,7.2933655 Z" id="Shape"></path>
                    <path d="M22.7368546,5.5716858 C23.2891007,5.5716858 23.7368546,5.1239319 23.7368546,4.5716858 L23.7368546,1.0023499 C23.7368546,0.4501038 23.2891007,0.0023499 22.7368546,0.0023499 C22.1846085,0.0023499 21.7368546,0.4501038 21.7368546,1.0023499 L21.7368546,4.5716858 C21.7368546,5.1239319 22.1846085,5.5716858 22.7368546,5.5716858 Z" id="Shape"></path>
                    <path d="M30.942421,8.4144592 L27.2700577,8.4144592 C26.7178116,8.4144592 26.2700577,8.8622131 26.2700577,9.4144592 C26.2700577,9.9667053 26.7178116,10.4144592 27.2700577,10.4144592 L30.942421,10.4144592 C31.4946671,10.4144592 31.942421,9.9667053 31.942421,9.4144592 C31.942421,8.8622131 31.4946671,8.4144592 30.942421,8.4144592 Z" id="Shape"></path>
                </g>
            </g>
        </g>
    </g>
</svg>