<?xml version="1.0" encoding="UTF-8"?>
<svg width="53px" height="58px" viewBox="0 0 53 58" version="1.1" xmlns="http://www.w3.org/2000/svg" xmlns:xlink="http://www.w3.org/1999/xlink">
    <!-- Generator: Sketch 51.3 (57544) - http://www.bohemiancoding.com/sketch -->
    <title>noun_explosion_1753707</title>
    <desc>Created with Sketch.</desc>
    <defs></defs>
    <g id="Page-1" stroke="none" stroke-width="1" fill="none" fill-rule="evenodd">
        <g id="Tradeshow_Details" transform="translate(-156.000000, -596.000000)" fill="#A6FABE" fill-rule="nonzero">
            <g id="noun_explosion_1753707" transform="translate(283.000000, 667.000000) rotate(-25.000000) translate(-283.000000, -667.000000) translate(178.000000, 562.000000)">
                <path d="M31.1866494,19.0508997 L19.1731794,7.24079373 L22.8552564,24.0143547 C23.0139812,24.7501086 22.585755,25.4775969 21.8847204,25.7065914 L7.30519744,31.0784334 L21.1158894,33.1311057 C21.9111657,33.2468424 22.4617416,33.9875571 22.3460043,34.7828334 C22.3162436,34.9886794 22.2434947,35.1779925 22.1401583,35.3433297 L18.5738123,42.1659987 L29.6093123,35.4326007 C30.2599175,35.0366163 31.0998356,35.2110486 31.5404618,35.8161846 L38.8608098,45.3123846 L39.1642052,40.0116486 C39.2063665,39.2362131 39.8495318,38.6352078 40.6167017,38.6360352 L40.6167017,38.6327285 L48.0519617,38.6327285 L43.4927567,33.7230125 C42.9454883,33.1352351 42.9793823,32.2134758 43.5671589,31.6662053 C43.6291608,31.6083368 43.6961226,31.5562554 43.764738,31.5116142 L53.306403,24.2598732 L39.319626,24.4599324 C38.5177368,24.469026 37.8588639,23.8266879 37.8497688,23.0247966 C37.8481155,22.8561517 37.8745696,22.6932927 37.9266511,22.5411834 L37.9233443,22.5403567 L42.8950523,7.98067872 L33.2996483,18.9715327 C32.7713933,19.575016 31.852112,19.6361911 31.2486287,19.1079368 L31.1866269,19.0508951 L31.1866494,19.0508997 Z M17.7190344,1.73421573 L32.1257694,15.8962587 L45.5098884,0.56527173 C45.8794191,0.0874440299 46.5242388,-0.12749517 47.1285495,0.0775236299 C47.8899318,0.33545193 48.2983167,1.16214213 48.0403884,1.92352443 L41.3466804,21.5251974 L57.6820974,21.2920701 L57.6820974,21.2937235 C58.1260311,21.2887634 58.5674826,21.4863424 58.8559974,21.8674477 C59.3396106,22.5056524 59.2147803,23.4174934 58.5765756,23.9011066 L46.7152086,32.9161756 L52.3953936,39.0328666 C52.6756428,39.2990605 52.850073,39.6743788 52.850073,40.0910314 C52.850073,40.8962281 52.1969877,41.5493134 51.391791,41.5493134 L41.990658,41.5493134 L41.5434189,49.3689784 L41.5425922,49.3689784 C41.519445,49.776538 41.327653,50.171695 40.9796158,50.440369 C40.3447165,50.9305972 39.4303975,50.8132072 38.9401693,50.1783079 L30.0110743,38.5947079 L15.6175693,47.3774749 L15.615916,47.3749948 C15.195958,47.630443 14.6553004,47.6676424 14.1882205,47.4229429 C13.4780929,47.0517595 13.2019786,46.1738125 13.573162,45.4636849 L18.670534,35.7120409 L1.24555297,33.1220269 C0.733831265,33.0467979 0.279151865,32.7012415 0.0890115653,32.1820795 C-0.187102735,31.4273101 0.200614805,30.5898721 0.955383365,30.3137578 L19.7353264,23.3943628 L15.2753254,3.07843777 L15.2786321,3.07761108 C15.1794292,2.61549138 15.3075664,2.11369008 15.6630434,1.75159968 C16.2251924,1.17953028 17.1469538,1.17208998 17.7190232,1.73423917 L17.7190344,1.73421573 Z" id="Shape"></path>
            </g>
        </g>
    </g>
</svg>