<?xml version="1.0" encoding="UTF-8"?>
<svg width="89px" height="90px" viewBox="0 0 89 90" version="1.1" xmlns="http://www.w3.org/2000/svg" xmlns:xlink="http://www.w3.org/1999/xlink">
    <!-- Generator: Sketch 51.3 (57544) - http://www.bohemiancoding.com/sketch -->
    <title>Shape</title>
    <desc>Created with Sketch.</desc>
    <defs></defs>
    <g id="Page-1" stroke="none" stroke-width="1" fill="none" fill-rule="evenodd" opacity="0.5">
        <g id="Tradeshow_Details" transform="translate(-53.000000, -482.000000)" fill="#4DF67D" fill-rule="nonzero">
            <g id="noun_skill_1074750-(1)" transform="translate(53.000000, 482.000000)">
                <path d="M88.67,37.52 C88.6031797,37.1102539 88.367333,36.7474128 88.02,36.52 L74.65,27.86 L73.82,11.94 C73.7952719,11.5311569 73.6033324,11.1505223 73.2892976,10.8875654 C72.9752628,10.6246086 72.5668291,10.5025211 72.16,10.55 L56.34,12.55 L45.47,0.84 C45.1845328,0.551751523 44.795683,0.389579357 44.39,0.389579357 C43.984317,0.389579357 43.5954672,0.551751523 43.31,0.84 L32.44,12.5 L16.62,10.5 C16.2107158,10.4610043 15.8036544,10.5940169 15.4963662,10.867162 C15.189078,11.1403071 15.0092583,11.5289665 15,11.94 L14.17,27.86 L0.77,36.54 C0.425696333,36.7628935 0.189329105,37.1186725 0.117293436,37.5224514 C0.0452577673,37.9262303 0.144014082,38.3417966 0.39,38.67 L8.91,50 C8.95246526,51.1152624 9.12018533,52.2222148 9.41,53.3 C9.65360298,54.2953148 9.98834985,55.2660807 10.41,56.2 L2.06,64.54 C1.40666667,65.1988235 1.40666667,66.2611765 2.06,66.92 L24.64,89.51 C25.301034,90.1579429 26.358966,90.1579429 27.02,89.51 L35.88,80.65 C36.14,80.7433333 36.4,80.8233333 36.66,80.89 C38.3623797,81.3930937 40.1366138,81.6093813 41.91,81.53 C43.1867075,81.4873389 44.4531269,81.2857868 45.68,80.93 L58.59,87.51 C58.8018896,87.6134013 59.0342346,87.6680707 59.27,87.67 C59.4407218,87.6703006 59.6100986,87.6398128 59.77,87.58 C60.154866,87.4419225 60.4635458,87.1477689 60.62,86.77 L66.85,72.09 L82.38,68.51 C82.7799822,68.419671 83.1240555,68.1663799 83.3291335,67.811291 C83.5342116,67.4562022 83.5816524,67.0315939 83.46,66.64 L78.8,51.4 L88.4,38.67 C88.6413652,38.3387466 88.738727,37.9240577 88.67,37.52 Z M43.39,63 C39.6462663,62.9092688 36.5639531,60.029004 36.22,56.3 L58.28,34.28 C58.28,34.28 65.11,41.1 65.21,41.22 L43.39,63 Z M67.22,44 C70.0425378,48.8301141 69.3332943,54.9442824 65.48,59 L52.21,72.33 C48.6703951,71.9915294 45.8684706,69.1896049 45.53,65.65 L67.22,44 Z M40.09,47.72 C39.7874725,44.311745 37.6359268,41.3456856 34.49,40 L49.23,25.24 C49.35,25.34 55.91,31.9 55.91,31.9 L40.09,47.72 Z M31.09,38.59 L21.6,34.73 L31.4,25 C35.4694456,21.1076224 41.6310495,20.3966681 46.48,23.26 L31.09,38.59 Z M33,43 C35.574027,44.5077592 36.6494245,47.6775724 35.524225,50.4403389 C34.3990256,53.2031055 31.4150103,54.7196306 28.52,54 L12.31,47.4 C12.6408951,45.0215731 13.6871709,42.7999807 15.31,41.03 C15.43,40.88 19.04,37.27 19.04,37.27 L33,43 Z M36.07,77.14 C35.4374558,76.8730834 34.706296,77.0153632 34.22,77.5 L25.78,85.94 L9,69.11 L5.62,65.73 L10,61.32 L13.64,57.68 C14.1651923,57.148532 14.2790501,56.3352619 13.92,55.68 C13.3818957,54.7069041 12.9622421,53.6728776 12.67,52.6 C12.5299556,52.1043224 12.4230528,51.5998745 12.35,51.09 L27.27,57.15 C29.0729344,57.8949438 31.0672274,58.04215 32.96,57.57 C33.7982901,62.1897515 37.5327788,65.7340766 42.19,66.33 C42.7073894,70.3805164 45.473005,73.7891182 49.33,75.13 C48.1850876,76.1663031 46.8458823,76.9650677 45.39,77.48 C44.2765878,77.879432 43.1111165,78.1152209 41.93,78.18 C39.9397719,78.2745834 37.9538377,77.9190978 36.12,77.14 L36.07,77.14 Z M76,50.22 C75.7140388,50.5967664 75.6283195,51.0887202 75.77,51.54 L80.17,66 L65.45,69.38 C64.997418,69.4947346 64.6262541,69.8176471 64.45,70.25 L58.55,84.15 L49.21,79.4 C50.3037747,78.7640816 51.3119189,77.991171 52.21,77.1 L67.86,61.43 C74,55.27 73.75,45 67.26,38.5 L52,23.19 C45.51,16.7 35.23,16.43 29.07,22.59 L13.34,38.27 C11.3320043,40.2713103 9.92839777,42.797802 9.29,45.56 L3.7,38.15 L16.38,29.93 C16.7546042,29.6552395 16.9829894,29.2242545 17,28.76 L17.78,13.68 L32.78,15.52 C33.2493642,15.5767185 33.7175805,15.4057823 34.04,15.06 L44.39,4 L54.69,15 C55.0173322,15.3446828 55.4878608,15.5151105 55.96,15.46 L70.96,13.62 L71.75,28.7 C71.7691046,29.175944 72.019181,29.6126446 72.42,29.87 L85.09,38.09 L76,50.22 Z" id="Shape"></path>
            </g>
        </g>
    </g>
</svg>