<svg xmlns="http://www.w3.org/2000/svg" xmlns:xlink="http://www.w3.org/1999/xlink" xmlns:a="http://ns.adobe.com/AdobeSVGViewerExtensions/3.0/" version="1.1" x="0px" y="0px" viewBox="-6.421 -3.166 100 125" overflow="visible" enable-background="new -6.421 -3.166 100 100" xml:space="preserve"><path d="M37.592,37.834h-2.634h-2.77c-0.368,0-1.511,0.654-2.382,1.408c-0.872,0.755,0.039,2.36,0.039,2.36s2.576,3.331,3.401,4.261  c0.827,0.929,1.712,0.734,1.712,0.734s0.731,0.164,1.557-0.765c0.826-0.93,3.324-4.311,3.324-4.311s0.872-1.525,0-2.28  C38.967,38.489,37.959,37.834,37.592,37.834z"/><ellipse cx="37.403" cy="33.231" rx="1.381" ry="2.655"/><ellipse cx="32.852" cy="33.231" rx="1.38" ry="2.655"/><path d="M35.579,13.175V13.16c0,0,0.741-0.003,1.652-0.007c-0.003-0.001,0.029-0.001,0.025-0.002c-0.3,0.002-0.586,0.002-0.92,0.004  c-0.386,0.002-0.796,0.004-1.227,0.006c-0.435-0.002-0.851-0.004-1.237-0.006c-0.417-0.002-0.803-0.003-1.169-0.005  c-0.011,0.001,0.023,0.001,0.013,0.002c1.025,0.005,1.862,0.008,1.862,0.008v0.015c-6.786,0.14-11.054,2.748-13.718,5.659h28.878  C47.148,15.919,42.825,13.307,35.579,13.175z"/><path d="M69.011,54.527c-1.203-1.487-12.673-11.638-12.957-14.391c-0.282-2.754-2.251-12.174-2.472-13.236  c-0.062-0.297-0.249-1.493-0.842-3.065H17.642c-0.679,1.572-0.94,2.769-1.002,3.065c-0.221,1.062-2.138,10.482-2.42,13.236  c-0.212,2.062-6.7,8.269-10.453,11.883l3.527,4.255c0.138-0.092,0.271-0.181,0.394-0.265c1.769-1.205,3.113-0.902,3.113-0.902  l0.003-0.467c-0.044,3.456,2.056,9.194,2.988,11.194h-0.002l0.984,2.839c-3.31,1.04-5.497,3.047-5.497,5.069  c0,0.059,0.015,0.235,0.02,0.295c-0.081,0.377-0.125,0.819-0.125,1.219c0,3.05,2.473,5.578,5.522,5.578h13.593  c2.138,0,3.972-1.223,4.889-3h3.887c0.916,1.781,2.768,3,4.909,3h13.593c3.049,0,5.521-2.469,5.521-5.52  c0-0.399-0.044-0.786-0.125-1.163c0.004-0.06,0.02-0.119,0.02-0.179c0-2.021-2.187-3.796-5.498-4.836l0.985-2.375h-0.001  c0.933-2.283,3.033-8.202,2.989-11.657l0.002,0.003c0,0,1.346-0.303,3.116,0.902c1.77,1.203,5.238,3.425,6.795,2.22  C70.924,57.027,70.214,56.014,69.011,54.527z M53.704,67.132c-0.079,0.455-0.188,0.962-0.328,1.486  c-1.44-0.283-3.007-0.45-4.664-0.45c-6.109,0-11.161,2.115-12.095,4.883c-0.367,0.563-0.594,1.203-0.594,1.895  c0,0.308,0.053,0.602,0.134,0.887h-2.193c0.081-0.285,0.127-0.582,0.127-0.889c0-0.516-0.123-1.005-0.334-1.457  c-0.52-2.979-5.784-5.321-12.213-5.321c-1.657,0-3.223,0.167-4.663,0.45c-0.141-0.524-0.249-1.031-0.328-1.486  c-0.565-3.876-1.935-18.581,8.335-26.008c0.12-0.086,0.229-0.167,0.342-0.249l-0.243-0.25l0.712-0.728  c-2.267-0.976-3.854-3.229-3.854-5.853c0-3.519,2.852-6.372,6.372-6.372c2.579,0,4.794,1.535,5.797,3.737l1.082-1.105l1.104,1.105  c1.002-2.203,3.264-3.737,5.842-3.737c3.52,0,6.372,2.853,6.372,6.372c0,2.625-1.588,4.877-3.854,5.853l0.712,0.728l-0.243,0.25  c0.112,0.082,0.222,0.163,0.341,0.249C55.639,48.552,54.269,63.256,53.704,67.132z"/><path d="M1.252,54.527c-1.203,1.486-1.917,2.5-0.359,3.703c0.872,0.674,2.342,0.274,3.777-0.419l-3.054-3.684  C1.456,54.294,1.331,54.43,1.252,54.527z"/><text x="-6.421" y="111.834" fill="#000000" font-size="5px" font-weight="bold" font-family="'Helvetica Neue', Helvetica, Arial-Unicode, Arial, Sans-serif">Created by Hayden Kerrisk</text><text x="-6.421" y="116.834" fill="#000000" font-size="5px" font-weight="bold" font-family="'Helvetica Neue', Helvetica, Arial-Unicode, Arial, Sans-serif">from the Noun Project</text></svg>